<svg fill="none" height="24" viewBox="0 0 24 24" width="24" xmlns="http://www.w3.org/2000/svg">
    <path
        d="M6.75258 9.00372C6.75258 8.58951 6.41679 8.25372 6.00258 8.25372C5.58836 8.25372 5.25258 8.58951 5.25258 9.00372H6.75258ZM18.7576 9.00372C18.7576 8.58951 18.4218 8.25372 18.0076 8.25372C17.5934 8.25372 17.2576 8.58951 17.2576 9.00372H18.7576ZM14.7559 10.0041C14.7559 9.58993 14.4201 9.25414 14.0059 9.25414C13.5917 9.25414 13.2559 9.58993 13.2559 10.0041H14.7559ZM13.2559 17.0071C13.2559 17.4213 13.5917 17.7571 14.0059 17.7571C14.4201 17.7571 14.7559 17.4213 14.7559 17.0071H13.2559ZM10.7542 10.0041C10.7542 9.58993 10.4185 9.25414 10.0042 9.25414C9.59003 9.25414 9.25424 9.58993 9.25424 10.0041H10.7542ZM9.25424 17.0071C9.25424 17.4213 9.59003 17.7571 10.0042 17.7571C10.4185 17.7571 10.7542 17.4213 10.7542 17.0071H9.25424ZM4.50195 5.25247C4.08774 5.25247 3.75195 5.58826 3.75195 6.00247C3.75195 6.41669 4.08774 6.75247 4.50195 6.75247V5.25247ZM19.5082 6.75247C19.9224 6.75247 20.2582 6.41669 20.2582 6.00247C20.2582 5.58826 19.9224 5.25247 19.5082 5.25247V6.75247ZM7.2919 5.7653C7.16091 6.15826 7.37328 6.583 7.76624 6.71398C8.1592 6.84497 8.58394 6.6326 8.71492 6.23964L7.2919 5.7653ZM8.54764 4.36979L9.25915 4.60696L9.25921 4.60679L8.54764 4.36979ZM10.4464 3.00122L10.4462 3.75122H10.4464V3.00122ZM13.5637 3.00122V3.75122L13.5647 3.75122L13.5637 3.00122ZM15.4645 4.36979L16.1763 4.13341L16.1761 4.13279L15.4645 4.36979ZM15.295 6.23886C15.4255 6.63196 15.85 6.8448 16.2431 6.71425C16.6362 6.58369 16.8491 6.15919 16.7185 5.76609L15.295 6.23886ZM5.25258 9.00372V19.0079H6.75258V9.00372H5.25258ZM5.25258 19.0079C5.25258 20.5271 6.48417 21.7587 8.00341 21.7587V20.2587C7.3126 20.2587 6.75258 19.6987 6.75258 19.0079H5.25258ZM8.00341 21.7587H16.0067V20.2587H8.00341V21.7587ZM16.0067 21.7587C17.526 21.7587 18.7576 20.5271 18.7576 19.0079H17.2576C17.2576 19.6987 16.6976 20.2587 16.0067 20.2587V21.7587ZM18.7576 19.0079V9.00372H17.2576V19.0079H18.7576ZM13.2559 10.0041V17.0071H14.7559V10.0041H13.2559ZM9.25424 10.0041V17.0071H10.7542V10.0041H9.25424ZM4.50195 6.75247H19.5082V5.25247H4.50195V6.75247ZM8.71492 6.23964L9.25915 4.60696L7.83613 4.13262L7.2919 5.7653L8.71492 6.23964ZM9.25921 4.60679C9.42941 4.09578 9.90763 3.75109 10.4462 3.75122L10.4466 2.25122C9.26208 2.25094 8.21038 3.00896 7.83607 4.13279L9.25921 4.60679ZM10.4464 3.75122H13.5637V2.25122H10.4464V3.75122ZM13.5647 3.75122C14.1037 3.75055 14.5826 4.09534 14.7529 4.60679L16.1761 4.13279C15.8015 3.008 14.7483 2.24975 13.5628 2.25122L13.5647 3.75122ZM14.7527 4.60618L15.295 6.23886L16.7185 5.76609L16.1763 4.13341L14.7527 4.60618Z"
        fill="black" />
</svg>
